<svg width="19" height="18" viewBox="0 0 19 18" fill="none" xmlns="http://www.w3.org/2000/svg">
<path d="M11.2585 9.03405C11.2585 9.88609 10.5677 10.5769 9.71569 10.5769C8.86365 10.5769 8.17285 9.88609 8.17285 9.03405C8.17285 8.182 8.86365 7.49121 9.71569 7.49121C10.5677 7.49121 11.2585 8.182 11.2585 9.03405Z" fill="#1F4262"/>
<path d="M12.3212 4.37109H7.10985C5.97549 4.37109 5.05273 5.29385 5.05273 6.42821V11.6396C5.05273 12.7739 5.97549 13.6967 7.10985 13.6967H12.3212C13.4556 13.6967 14.3783 12.7739 14.3783 11.6396V6.42821C14.3783 5.29385 13.4556 4.37109 12.3212 4.37109ZM9.71552 11.6053C8.29764 11.6053 7.14413 10.4518 7.14413 9.03388C7.14413 7.616 8.29764 6.46249 9.71552 6.46249C11.1334 6.46249 12.2869 7.616 12.2869 9.03388C12.2869 10.4518 11.1334 11.6053 9.71552 11.6053ZM12.6641 6.59963C12.38 6.59963 12.1498 6.36941 12.1498 6.08535C12.1498 5.8013 12.38 5.57108 12.6641 5.57108C12.9481 5.57108 13.1783 5.8013 13.1783 6.08535C13.1783 6.36941 12.9481 6.59963 12.6641 6.59963Z" fill="#1F4262"/>
<path d="M13.864 0.256836H5.56698C3.01488 0.256836 0.938477 2.33323 0.938477 4.88534V13.1824C0.938477 15.7345 3.01488 17.8109 5.56698 17.8109H13.864C16.4161 17.8109 18.4925 15.7345 18.4925 13.1824V4.88534C18.4925 2.33323 16.4161 0.256836 13.864 0.256836ZM15.4068 11.6395C15.4068 13.3409 14.0226 14.7252 12.3212 14.7252H7.10982C5.40841 14.7252 4.02415 13.3409 4.02415 11.6395V6.42818C4.02415 4.72677 5.40841 3.34251 7.10982 3.34251H12.3212C14.0226 3.34251 15.4068 4.72677 15.4068 6.42818V11.6395Z" fill="#1F4262"/>
</svg>
