<svg width="457" height="125" viewBox="0 0 457 125" fill="none" xmlns="http://www.w3.org/2000/svg">
<g clip-path="url(#clip0_266_44)">
<path d="M22.7084 123.482C33.8262 122.663 39.8755 107.924 42.8185 89.2544C52.1379 100.227 59.4952 111.036 61.457 116.112C63.5826 121.681 67.8335 123.81 72.9019 123.81C83.3656 123.81 96.7723 113.656 96.2819 103.83C95.9548 94.0037 82.5481 76.1527 66.035 62.2323C82.5481 48.3119 95.9548 30.2974 96.2819 20.471C96.7723 10.6449 83.3656 0.491211 72.9019 0.491211C67.8335 0.491211 63.5826 2.62021 61.457 8.18838C59.4952 13.2652 52.4647 23.7464 43.3089 34.5552C41.8375 21.7813 39.2215 11.4638 36.1151 7.04199C33.1723 2.94775 27.1229 0.982522 20.7466 0.982522C8.97475 0.982522 -3.61448 7.5333 0.963425 18.6696C6.5223 32.4263 4.23336 90.7283 4.23336 107.433C4.23336 119.715 10.7732 124.465 22.7084 123.482Z" fill="#3D1959"/>
<path d="M124.894 123.483C144.023 122.009 146.803 83.5229 146.639 66.6546C146.312 41.9254 145.494 17.3599 138.301 7.04238C135.358 2.94814 129.308 0.98291 122.932 0.98291C111.16 0.98291 98.5711 7.53369 103.149 18.67C108.708 32.4267 106.419 90.7287 106.419 107.433C106.419 119.716 112.959 124.465 124.894 123.483Z" fill="#3D1959"/>
<path d="M209.259 0.654717C199.449 0.654717 171.655 -1.80182 161.355 5.40404C151.054 12.7737 154.651 33.5725 167.404 33.5725C169.039 33.5725 171.001 33.2449 172.963 32.426C176.396 30.9521 180.974 30.4607 185.879 30.4607C191.274 30.4607 197.16 31.1159 202.719 31.771C195.688 54.5348 157.921 64.8524 155.142 100.718C153.67 119.879 167.404 123.482 190.947 123.482C205.335 123.482 239.833 125.939 244.739 107.76C247.027 99.5715 241.305 88.7627 232.311 88.7627C230.678 88.7627 229.042 89.2541 227.244 89.9092C222.34 91.8745 216.943 93.3484 209.422 93.3484C206.317 93.3484 202.883 93.0207 198.959 92.5295C227.244 60.4306 246.045 48.6393 245.229 20.3072C244.739 1.47356 230.841 0.654717 209.259 0.654717Z" fill="#3D1959"/>
<path d="M306.176 0.655206C296.365 0.655206 268.572 -1.80134 258.27 5.40453C247.97 12.7742 251.567 33.573 264.32 33.573C265.955 33.573 267.917 33.2454 269.879 32.4265C273.313 30.9526 277.89 30.4612 282.796 30.4612C288.191 30.4612 294.077 31.1164 299.636 31.7715C292.605 54.5353 254.838 64.8529 252.057 100.718C250.587 119.88 264.32 123.482 287.864 123.482C302.251 123.482 336.749 125.939 341.653 107.76C343.944 99.572 338.221 88.7632 329.228 88.7632C327.594 88.7632 325.959 89.2546 324.16 89.9097C319.254 91.875 313.86 93.3488 306.339 93.3488C303.233 93.3488 299.799 93.0212 295.875 92.53C324.16 60.4311 342.962 48.6398 342.145 20.3076C341.653 1.47405 327.758 0.655206 306.176 0.655206Z" fill="#3D1959"/>
<path d="M400.148 123.482C422.221 121.68 425.165 89.5814 420.259 66.9812C438.08 55.5174 454.757 32.5897 455.248 20.4706C455.739 10.6445 440.532 -0.000488281 429.416 -0.000488281C424.346 -0.000488281 420.095 2.45605 418.789 8.18798C417.643 13.1011 411.431 25.7113 400.804 37.0115C390.177 25.7113 384.127 13.1011 382.982 8.18798C381.674 2.45605 377.423 -0.000488281 372.355 -0.000488281C361.237 -0.000488281 346.032 10.6445 346.522 20.4706C347.012 32.2621 362.709 54.0435 380.04 65.8349C383.472 78.4452 381.674 92.6932 381.674 107.432C381.674 119.715 388.215 124.464 400.148 123.482Z" fill="#3D1959"/>
</g>
<defs>
<clipPath id="clip0_266_44">
<rect width="456.241" height="124.124" fill="white"/>
</clipPath>
</defs>
</svg>
