<svg width="76" height="76" viewBox="0 0 76 76" fill="none" xmlns="http://www.w3.org/2000/svg">
<g clip-path="url(#clip0_423_104)">
<path d="M55.4274 0H20.5725C9.22862 0 0 9.22862 0 20.5725V55.428C0 66.7712 9.22862 75.9999 20.5725 75.9999H55.428C66.7712 75.9999 75.9999 66.7712 75.9999 55.428V20.5725C75.9999 9.22862 66.7712 0 55.4274 0V0ZM71.5444 55.428C71.5444 64.3145 64.3145 71.5444 55.4274 71.5444H20.5725C11.6854 71.5444 4.45544 64.3145 4.45544 55.428V20.5725C4.45544 11.6854 11.6854 4.45544 20.5725 4.45544H55.428C64.3145 4.45544 71.5444 11.6854 71.5444 20.5725V55.428Z" fill="#3D1959"/>
<path d="M38.0004 17.2192C26.5417 17.2192 17.2197 26.5412 17.2197 37.9999C17.2197 49.4585 26.5417 58.7805 38.0004 58.7805C49.459 58.7805 58.781 49.4585 58.781 37.9999C58.781 26.5412 49.459 17.2192 38.0004 17.2192V17.2192ZM38.0004 54.3251C28.999 54.3251 21.6752 47.0018 21.6752 37.9999C21.6752 28.9985 28.999 21.6747 38.0004 21.6747C47.0023 21.6747 54.3256 28.9985 54.3256 37.9999C54.3256 47.0018 47.0023 54.3251 38.0004 54.3251V54.3251Z" fill="#3D1959"/>
<path d="M59.2771 9.83911C55.8909 9.83911 53.1367 12.5939 53.1367 15.9795C53.1367 19.3658 55.8909 22.1206 59.2771 22.1206C62.6634 22.1206 65.4182 19.3658 65.4182 15.9795C65.4182 12.5933 62.6634 9.83911 59.2771 9.83911ZM59.2771 17.6645C58.3483 17.6645 57.5922 16.9084 57.5922 15.9795C57.5922 15.0501 58.3483 14.2945 59.2771 14.2945C60.2066 14.2945 60.9627 15.0501 60.9627 15.9795C60.9627 16.9084 60.2066 17.6645 59.2771 17.6645Z" fill="#3D1959"/>
</g>
<defs>
<clipPath id="clip0_423_104">
<rect width="76" height="76" fill="white"/>
</clipPath>
</defs>
</svg>
