<svg width="50" height="51" viewBox="0 0 50 51" fill="none" xmlns="http://www.w3.org/2000/svg">
<g clip-path="url(#clip0_129_78)">
<path d="M16.7461 22.364C17.197 21.9428 17.6132 21.4821 18.0293 21.0263L27.304 30.1474C27.7435 30.5809 28.3365 30.8231 28.9538 30.8212C29.3248 30.8211 29.6908 30.7364 30.024 30.5734L31.3171 31.8418C31.4827 32.0034 31.705 32.0938 31.9364 32.0938C32.1678 32.0938 32.3901 32.0034 32.5557 31.8418L32.6697 31.7278C32.7507 31.6489 32.8151 31.5545 32.8591 31.4503C32.9031 31.346 32.9258 31.234 32.9258 31.1209C32.9258 31.0078 32.9031 30.8958 32.8591 30.7915C32.8151 30.6873 32.7507 30.5929 32.6697 30.514L31.3765 29.2407C31.6005 28.8074 31.6794 28.3136 31.6019 27.832C31.5243 27.3504 31.2942 26.9064 30.9455 26.5653L21.656 17.4244C22.1514 16.929 22.6469 16.4682 23.1423 16.0322L32.3674 25.1087C32.8298 25.5602 33.1848 26.1098 33.406 26.717C33.6273 27.3242 33.7092 27.9733 33.6457 28.6164L34.0916 29.0574C34.3662 29.3263 34.5843 29.6474 34.7332 30.0017C34.8822 30.356 34.9589 30.7365 34.9589 31.1209C34.9589 31.5053 34.8822 31.8858 34.7332 32.2401C34.5843 32.5944 34.3662 32.9155 34.0916 33.1844L33.9776 33.2984C33.4295 33.8346 32.6933 34.1349 31.9265 34.1349C31.1597 34.1349 30.4234 33.8346 29.8754 33.2984L29.4096 32.8376C29.2551 32.8559 29.0995 32.8642 28.9439 32.8624C27.7906 32.8675 26.6823 32.415 25.8623 31.604L16.6074 22.4829L16.7461 22.364Z" fill="#FA754A"/>
<path d="M29.7071 38.6789C29.7071 36.5138 32.1595 32.5156 32.4419 32.0648C32.5326 31.9155 32.6598 31.7917 32.8114 31.705C32.9631 31.6184 33.1343 31.5717 33.309 31.5693C33.4838 31.5707 33.6554 31.617 33.8072 31.7038C33.959 31.7905 34.086 31.9148 34.176 32.0648C34.4534 32.5156 36.9108 36.5238 36.9108 38.674C36.9365 39.1629 36.8623 39.6519 36.6929 40.1112C36.5235 40.5705 36.2623 40.9905 35.9253 41.3457C35.5883 41.7008 35.1826 41.9836 34.7328 42.1769C34.283 42.3701 33.7985 42.4698 33.309 42.4698C32.8194 42.4698 32.3349 42.3701 31.8851 42.1769C31.4353 41.9836 31.0296 41.7008 30.6926 41.3457C30.3556 40.9905 30.0945 40.5705 29.925 40.1112C29.7556 39.6519 29.6815 39.1629 29.7071 38.674V38.6789ZM31.7483 38.6789C31.7175 38.9019 31.7348 39.129 31.7991 39.3447C31.8634 39.5605 31.9732 39.76 32.121 39.9297C32.2689 40.0995 32.4515 40.2356 32.6564 40.3288C32.8613 40.4221 33.0838 40.4703 33.309 40.4703C33.5341 40.4703 33.7566 40.4221 33.9615 40.3288C34.1665 40.2356 34.349 40.0995 34.4969 39.9297C34.6448 39.76 34.7546 39.5605 34.8189 39.3447C34.8832 39.129 34.9005 38.9019 34.8696 38.6789C34.8696 37.8268 34.0918 36.1076 33.304 34.651C32.5113 36.1026 31.7384 37.8416 31.7384 38.6789H31.7483Z" fill="#FA754A"/>
<path d="M17.5091 12.9306L19.6742 15.061L20.1696 14.6003C20.3717 14.4015 20.6443 14.2911 20.9277 14.2931C21.2381 14.2967 21.5348 14.4211 21.7551 14.6399L21.9631 14.843C22.0705 14.9415 22.1569 15.0606 22.2172 15.1933C22.2775 15.3259 22.3105 15.4693 22.3142 15.6149C22.3179 15.7606 22.2923 15.9055 22.2388 16.041C22.1852 16.1765 22.105 16.2998 22.0028 16.4037L16.9988 21.3284C16.7962 21.5262 16.524 21.6365 16.2408 21.6355C16.086 21.6354 15.9328 21.6047 15.79 21.5452C15.6472 21.4857 15.5175 21.3985 15.4084 21.2887L15.2004 21.0856C15.0942 20.9864 15.0089 20.867 14.9493 20.7345C14.8898 20.6019 14.8572 20.4588 14.8536 20.3136C14.8499 20.1683 14.8751 20.0238 14.9279 19.8884C14.9806 19.753 15.0598 19.6294 15.1607 19.525L15.6314 19.0592L13.4663 16.9288C13.2226 16.6903 13.0289 16.4055 12.8967 16.0912C12.7645 15.7768 12.6964 15.4392 12.6964 15.0982C12.6964 14.7572 12.7645 14.4196 12.8967 14.1052C13.0289 13.7908 13.2226 13.506 13.4663 13.2675L13.8082 12.9306C14.3053 12.4443 14.9731 12.172 15.6686 12.172C16.364 12.172 17.0318 12.4443 17.5289 12.9306H17.5091ZM15.6463 10.1314C14.4154 10.1271 13.2329 10.6098 12.3565 11.474L12.0147 11.8109C11.5769 12.2387 11.2291 12.7496 10.9916 13.3137C10.7542 13.8778 10.6318 14.4837 10.6318 15.0957C10.6318 15.7077 10.7542 16.3136 10.9916 16.8777C11.2291 17.4418 11.5769 17.9527 12.0147 18.3805L12.9461 19.2971C12.8408 19.6167 12.7889 19.9514 12.7925 20.2879C12.7938 20.7114 12.879 21.1303 13.0431 21.5206C13.2072 21.911 13.447 22.2649 13.7487 22.562L13.9568 22.7651C14.5589 23.3625 15.3728 23.6974 16.221 23.6966C17.0399 23.6996 17.827 23.3791 18.4108 22.8048L23.4148 17.8801C23.708 17.5939 23.9406 17.2517 24.0989 16.8738C24.2572 16.4959 24.338 16.09 24.3363 15.6803C24.3341 15.2566 24.248 14.8375 24.0831 14.4472C23.9181 14.0569 23.6775 13.7031 23.3751 13.4062L23.1671 13.2031C22.5665 12.6065 21.7544 12.2717 20.9078 12.2717C20.5709 12.2725 20.2363 12.3277 19.917 12.4352L18.9608 11.4938C18.0829 10.6288 16.8985 10.1462 15.6661 10.1512L15.6463 10.1314Z" fill="#FA754A"/>
<path d="M22.1418 26.8179H31.5552C31.6749 26.8269 31.7951 26.8112 31.9085 26.7716C32.0218 26.732 32.1257 26.6694 32.2137 26.5878C32.3018 26.5062 32.372 26.4072 32.42 26.2972C32.468 26.1872 32.4928 26.0684 32.4928 25.9484C32.4928 25.8284 32.468 25.7096 32.42 25.5996C32.372 25.4896 32.3018 25.3906 32.2137 25.309C32.1257 25.2274 32.0218 25.1648 31.9085 25.1252C31.7951 25.0856 31.6749 25.0699 31.5552 25.0789H22.1418C22.0221 25.0699 21.9018 25.0856 21.7884 25.1252C21.6751 25.1648 21.5712 25.2274 21.4832 25.309C21.3951 25.3906 21.3249 25.4896 21.2769 25.5996C21.2289 25.7096 21.2041 25.8284 21.2041 25.9484C21.2041 26.0684 21.2289 26.1872 21.2769 26.2972C21.3249 26.4072 21.3951 26.5062 21.4832 26.5878C21.5712 26.6694 21.6751 26.732 21.7884 26.7716C21.9018 26.8112 22.0221 26.8269 22.1418 26.8179Z" fill="#FA754A"/>
<path d="M-0.0195312 25.4555C-0.0195312 11.8804 11.1973 0.832031 24.9805 0.832031C38.7637 0.832031 50.0201 11.8804 50.0201 25.4555C50.0201 39.0306 38.8033 50.079 25.0201 50.079C11.2369 50.079 -0.0195312 39.0306 -0.0195312 25.4555V25.4555ZM2.80449 25.4555C2.80449 37.4749 12.753 47.2549 24.9805 47.2549C37.208 47.2549 47.1565 37.4749 47.1565 25.4555C47.1565 13.4361 37.208 3.65605 24.9805 3.65605C12.753 3.65605 2.82431 13.4361 2.82431 25.4555H2.80449Z" fill="#FA754A"/>
<path d="M28.8595 23.0723L42.5139 9.41795L41.0623 7.96631L27.5664 21.4621C28.0073 21.9873 28.4632 22.5075 28.8595 23.0723Z" fill="#FA754A"/>
<path d="M22.2257 26.8179L7.49121 41.5523L8.97754 42.9544L23.4989 28.4281C23.058 27.9326 22.6517 27.3579 22.2257 26.8179Z" fill="#FA754A"/>
</g>
<defs>
<clipPath id="clip0_129_78">
<rect width="50" height="50" fill="white" transform="translate(0 0.453125)"/>
</clipPath>
</defs>
</svg>
