<svg width="50" height="51" viewBox="0 0 50 51" fill="none" xmlns="http://www.w3.org/2000/svg">
<g clip-path="url(#clip0_129_87)">
<path d="M24.9997 50.4531C20.056 50.4492 15.2245 48.9797 11.1159 46.2302C7.00725 43.4808 3.80602 39.575 1.91687 35.0065C0.0277155 30.438 -0.464537 25.412 0.50233 20.5637C1.4692 15.7155 3.85178 11.2628 7.34888 7.76846C10.846 4.27413 15.3006 1.89508 20.1496 0.932057C24.9986 -0.0309682 30.0242 0.465268 34.5912 2.35804C39.1582 4.25081 43.0615 7.45514 45.8077 11.5659C48.5538 15.6767 50.0195 20.5094 50.0195 25.4531C50.0117 32.0846 47.3725 38.4418 42.6815 43.1291C37.9905 47.8164 31.6312 50.4505 24.9997 50.4531ZM24.9997 3.28705C20.6157 3.28705 16.3301 4.58707 12.6849 7.02271C9.03973 9.45835 6.19864 12.9202 4.52094 16.9705C2.84324 21.0209 2.40428 25.4777 3.25956 29.7775C4.11485 34.0773 6.22597 38.0269 9.32595 41.1269C12.4259 44.2269 16.3755 46.338 20.6753 47.1933C24.9751 48.0486 29.432 47.6096 33.4823 45.9319C37.5326 44.2542 40.9945 41.4131 43.4301 37.7679C45.8658 34.1227 47.1658 29.8372 47.1658 25.4531C47.1579 19.5767 44.8201 13.9433 40.6648 9.78803C36.5096 5.63279 30.8761 3.29492 24.9997 3.28705Z" fill="#FA754A"/>
<path d="M24.9994 26.6174C24.3584 26.6161 23.7243 26.4835 23.1364 26.2279C22.5485 25.9723 22.0191 25.599 21.5809 25.1311C20.4355 23.981 19.7848 22.4289 19.7676 20.8059C19.7676 18.1107 21.5363 15.2222 23.0177 13.2801C23.2384 12.9582 23.5342 12.695 23.8795 12.513C24.2248 12.3311 24.6092 12.2361 24.9994 12.2361C25.3897 12.2361 25.7741 12.3311 26.1194 12.513C26.4647 12.695 26.7605 12.9582 26.9812 13.2801C28.4675 15.2222 30.2363 18.1107 30.2363 20.8059C30.2191 22.4289 29.5683 23.981 28.4229 25.1311C27.9842 25.5996 27.454 25.9733 26.8652 26.2289C26.2763 26.4845 25.6414 26.6168 24.9994 26.6174ZM24.9994 14.3106C24.9277 14.3206 24.8591 14.3462 24.7983 14.3856C24.7375 14.4249 24.6861 14.4772 24.6477 14.5385C23.5924 15.9258 21.8187 18.5913 21.8187 20.8257C21.8249 21.3688 21.9385 21.9053 22.1527 22.4044C22.367 22.9035 22.6778 23.3553 23.0672 23.7339C23.3151 23.9979 23.6144 24.2083 23.9468 24.3521C24.2791 24.4959 24.6373 24.5701 24.9994 24.5701C25.3615 24.5701 25.7198 24.4959 26.0521 24.3521C26.3845 24.2083 26.6838 23.9979 26.9317 23.7339C27.3211 23.3553 27.6319 22.9035 27.8462 22.4044C28.0604 21.9053 28.1739 21.3688 28.1802 20.8257C28.1802 18.5913 26.4065 15.9258 25.3512 14.5385C25.3128 14.4772 25.2614 14.4249 25.2006 14.3856C25.1398 14.3462 25.0712 14.3206 24.9994 14.3106Z" fill="#FA754A"/>
<path d="M17.9251 36.7789C17.6612 36.7796 17.3977 36.7581 17.1374 36.7145C15.5299 36.489 14.075 35.6423 13.0847 34.3562C11.4646 32.201 11.1376 28.832 11.1524 26.3846C11.1364 25.9958 11.2151 25.6089 11.3817 25.2573C11.5483 24.9057 11.7977 24.5997 12.1087 24.3658C12.4196 24.1319 12.7827 23.977 13.1667 23.9144C13.5507 23.8518 13.9442 23.8833 14.3133 24.0064C16.6716 24.6654 19.8177 25.904 21.4428 28.0592C22.4062 29.3645 22.8189 30.9958 22.5922 32.6023C22.4632 33.7503 21.9161 34.8105 21.0553 35.5808C20.1945 36.3511 19.0803 36.7776 17.9251 36.7789ZM13.5504 25.9486C13.4764 25.945 13.4032 25.9659 13.3423 26.008C13.2915 26.0599 13.2528 26.1223 13.2288 26.1908C13.2049 26.2593 13.1962 26.3322 13.2036 26.4044C13.2036 28.1483 13.377 31.3588 14.7196 33.1275C15.392 33.9946 16.3809 34.5594 17.4693 34.6981C17.8266 34.759 18.1925 34.7463 18.5447 34.6608C18.8968 34.5752 19.2278 34.4186 19.5173 34.2006C19.8068 33.9825 20.0487 33.7076 20.2281 33.3928C20.4076 33.0779 20.5208 32.7297 20.5609 32.3695C20.6433 31.8328 20.6188 31.2851 20.4887 30.7579C20.3586 30.2307 20.1255 29.7345 19.8028 29.2978C18.4602 27.5092 15.443 26.4539 13.7634 25.9832C13.6946 25.9608 13.6227 25.9491 13.5504 25.9486Z" fill="#FA754A"/>
<path d="M32.0743 36.8779C30.9192 36.8766 29.805 36.4501 28.9442 35.6798C28.0834 34.9095 27.5363 33.8492 27.4073 32.7013C27.2908 31.9049 27.3324 31.0933 27.5296 30.3129C27.7268 29.5325 28.0758 28.7986 28.5567 28.1532C30.1817 26.0029 33.3278 24.7643 35.6861 24.1004C36.0556 23.9784 36.4492 23.9478 36.8331 24.0111C37.2171 24.0745 37.5799 24.2299 37.8907 24.4642C38.2014 24.6985 38.4507 25.0045 38.6172 25.3562C38.7838 25.7079 38.8627 26.0947 38.847 26.4835C38.847 28.931 38.5349 32.3 36.9148 34.4502C35.9257 35.7386 34.4705 36.5872 32.8621 36.8135C32.6018 36.8571 32.3383 36.8786 32.0743 36.8779ZM36.4491 26.0426C36.3771 26.0437 36.3056 26.0537 36.236 26.0723C34.5565 26.543 31.5393 27.6032 30.1966 29.3868C29.5466 30.2716 29.274 31.378 29.4386 32.4635C29.4786 32.8237 29.5919 33.1719 29.7713 33.4868C29.9508 33.8017 30.1927 34.0765 30.4821 34.2946C30.7716 34.5126 31.1026 34.6692 31.4548 34.7548C31.807 34.8403 32.1729 34.853 32.5302 34.7921C33.0697 34.7236 33.5904 34.5492 34.0622 34.2788C34.5341 34.0084 34.9479 33.6474 35.2798 33.2166C36.6225 31.433 36.8058 28.2374 36.7959 26.4934C36.8032 26.4212 36.7946 26.3483 36.7706 26.2798C36.7466 26.2113 36.7079 26.1489 36.6572 26.0971C36.5947 26.0588 36.5223 26.0398 36.4491 26.0426Z" fill="#FA754A"/>
</g>
<defs>
<clipPath id="clip0_129_87">
<rect width="50" height="50" fill="white" transform="translate(0 0.453125)"/>
</clipPath>
</defs>
</svg>
