<svg width="50" height="51" viewBox="0 0 50 51" fill="none" xmlns="http://www.w3.org/2000/svg">
<g clip-path="url(#clip0_129_93)">
<path d="M25.0022 50.4481C19.2178 50.4469 13.6128 48.4401 9.14212 44.7696C4.67147 41.0991 1.61178 35.9921 0.484398 30.3186C-0.642987 24.6451 0.23168 18.7563 2.95937 13.6554C5.68705 8.55456 10.099 4.55726 15.4435 2.34462C20.7879 0.131979 26.7343 -0.159105 32.2693 1.52096C37.8043 3.20102 42.5856 6.74827 45.7985 11.5583C49.0113 16.3684 50.457 22.1437 49.8891 27.9001C49.3212 33.6566 46.775 39.038 42.6842 43.1276C40.3667 45.4555 37.6109 47.3011 34.5759 48.5576C31.5409 49.8141 28.287 50.4566 25.0022 50.4481ZM25.0022 3.28117C19.8745 3.28505 14.9069 5.06668 10.9455 8.32252C6.98419 11.5784 4.27424 16.107 3.27742 21.1368C2.2806 26.1666 3.05857 31.3865 5.47878 35.907C7.89898 40.4276 11.8117 43.9691 16.5503 45.9283C21.2889 47.8875 26.5602 48.1432 31.4661 46.6516C36.3721 45.1601 40.6091 42.0138 43.4554 37.7486C46.3016 33.4834 47.581 28.3633 47.0755 23.2607C46.57 18.158 44.311 13.3884 40.6832 9.76457C38.6252 7.70451 36.1804 6.07128 33.4894 4.95866C30.7984 3.84605 27.9141 3.27598 25.0022 3.28117Z" fill="#FA754A"/>
<path d="M20.4408 30.2548C20.2485 30.2555 20.0621 30.1883 19.9144 30.0651C19.7668 29.9419 19.6673 29.7705 19.6335 29.5812L17.9495 20.4777L10.8866 19.1602C10.7802 19.1404 10.6788 19.0998 10.5882 19.0407C10.4975 18.9817 10.4194 18.9054 10.3582 18.8162C10.297 18.727 10.254 18.6266 10.2317 18.5207C10.2093 18.4149 10.208 18.3057 10.2278 18.1993C10.2477 18.093 10.2883 17.9916 10.3473 17.9009C10.4063 17.8103 10.4826 17.7321 10.5718 17.6709C10.6611 17.6098 10.7615 17.5668 10.8673 17.5444C10.9732 17.522 11.0824 17.5207 11.1887 17.5406L18.8113 18.9621C18.9747 18.9946 19.1246 19.0751 19.242 19.1934C19.3593 19.3116 19.4387 19.4622 19.47 19.6258L21.2531 29.2791C21.2921 29.4945 21.2442 29.7165 21.1198 29.8966C20.9954 30.0767 20.8047 30.2002 20.5894 30.2399L20.4408 30.2548Z" fill="#FA754A"/>
<path d="M18.6574 20.5967C18.4774 20.5978 18.302 20.5398 18.1582 20.4317C18.0143 20.3235 17.91 20.1712 17.861 19.998C17.8121 19.8248 17.8214 19.6404 17.8874 19.473C17.9534 19.3055 18.0725 19.1644 18.2265 19.0712L24.8386 15.0197C24.931 14.9531 25.0361 14.9063 25.1473 14.8822C25.2586 14.8582 25.3736 14.8573 25.4852 14.8797C25.5968 14.9022 25.7026 14.9474 25.7959 15.0126C25.8893 15.0777 25.9681 15.1615 26.0276 15.2585C26.0871 15.3556 26.1258 15.4639 26.1415 15.5767C26.1572 15.6894 26.1495 15.8042 26.1188 15.9138C26.0881 16.0234 26.0351 16.1255 25.9631 16.2137C25.8911 16.3019 25.8017 16.3743 25.7004 16.4263L19.0883 20.4778C18.958 20.5555 18.8091 20.5966 18.6574 20.5967Z" fill="#FA754A"/>
<path d="M23.4468 28.0707L20.5741 29.8289L12.5057 28.3431L10.6137 18.1053L17.6172 13.8309L25.6855 15.3168L26.9584 22.1519L28.9396 21.7012L27.6915 14.9503C27.6162 14.5432 27.4191 14.1686 27.1264 13.8759C26.8337 13.5832 26.4591 13.3862 26.052 13.3109L17.9837 11.825C17.8596 11.8012 17.7336 11.7896 17.6072 11.7903C17.2297 11.7908 16.8595 11.8954 16.5374 12.0924L9.53889 16.3768C9.18596 16.5936 8.90681 16.9121 8.738 17.2903C8.56919 17.6686 8.51861 18.0891 8.59289 18.4966L10.4899 28.6898C10.5649 29.0975 10.7617 29.4728 11.0544 29.7664C11.3471 30.0599 11.7218 30.2579 12.1293 30.3342L20.1976 31.82C20.322 31.8414 20.4479 31.853 20.5741 31.8547C20.9517 31.8547 21.322 31.7501 21.6439 31.5526L23.0555 30.6858L23.4468 28.0707Z" fill="#FA754A"/>
<path d="M32.2383 20.9631L39.3854 24.9948L37.8549 35.2771L29.846 37.0701L22.6989 33.0434L24.2294 22.7462L32.2383 20.9631ZM32.2383 18.9126C32.0868 18.9141 31.9358 18.9307 31.7876 18.9621L23.7787 20.765C23.3748 20.8567 23.0081 21.0686 22.727 21.3727C22.4458 21.6768 22.2634 22.059 22.2036 22.4688L20.688 32.7462C20.6275 33.1561 20.6925 33.5748 20.8747 33.9471C21.0568 34.3193 21.3475 34.6276 21.7083 34.8314L28.8554 38.8631C29.1584 39.0322 29.499 39.1225 29.846 39.1256C29.9977 39.1264 30.1489 39.1097 30.2967 39.076L38.3057 37.2781C38.7098 37.1876 39.077 36.9769 39.359 36.6736C39.6411 36.3704 39.8246 35.9889 39.8857 35.5793L41.3963 25.2969C41.4562 24.887 41.3908 24.4686 41.2087 24.0965C41.0266 23.7244 40.7364 23.416 40.376 23.2118L33.2289 19.185C32.9271 19.0123 32.586 18.9202 32.2383 18.9175V18.9126Z" fill="#FA754A"/>
<path d="M29.9005 37.7834H29.7767C29.558 37.7492 29.3616 37.6302 29.2299 37.4522C29.0983 37.2742 29.0421 37.0516 29.0734 36.8324L30.4404 27.5704L24.1006 23.9944C24.0053 23.9404 23.9216 23.8682 23.8542 23.7818C23.7868 23.6955 23.7371 23.5967 23.7079 23.4912C23.6787 23.3856 23.6706 23.2754 23.684 23.1667C23.6974 23.058 23.7321 22.953 23.7861 22.8577C23.8401 22.7624 23.9123 22.6787 23.9986 22.6113C24.085 22.5439 24.1838 22.4942 24.2893 22.465C24.3949 22.4358 24.5051 22.4277 24.6138 22.4411C24.7225 22.4545 24.8275 22.4892 24.9228 22.5432L31.7579 26.3966C31.9048 26.479 32.0233 26.6041 32.0976 26.7554C32.1718 26.9066 32.1985 27.0768 32.1739 27.2435L30.7227 37.0801C30.692 37.2761 30.5923 37.4547 30.4415 37.5836C30.2908 37.7126 30.0989 37.7834 29.9005 37.7834Z" fill="#FA754A"/>
<path d="M31.3465 27.9518C31.1417 27.9513 30.9443 27.8753 30.7921 27.7383C30.6399 27.6013 30.5435 27.413 30.5215 27.2094C30.4994 27.0058 30.5532 26.8013 30.6725 26.6349C30.7918 26.4684 30.9683 26.3519 31.1682 26.3075L38.8453 24.5888C39.0607 24.5402 39.2866 24.5791 39.4733 24.6971C39.66 24.8151 39.7922 25.0024 39.8408 25.2178C39.8894 25.4332 39.8505 25.6591 39.7325 25.8458C39.6145 26.0325 39.4272 26.1647 39.2118 26.2133L31.5496 27.932C31.4831 27.9476 31.4148 27.9543 31.3465 27.9518Z" fill="#FA754A"/>
<path d="M19.6432 31.1663L19.1479 31.0425C19.0043 31.0127 18.8409 30.9979 18.6972 30.9583H18.6279H18.405H18.1574H18.0682L7.60757 41.4139C7.51217 41.5092 7.4365 41.6223 7.38486 41.7468C7.33322 41.8713 7.30664 42.0047 7.30664 42.1395C7.30664 42.2743 7.33322 42.4078 7.38486 42.5323C7.4365 42.6568 7.51217 42.7699 7.60757 42.8651C7.80116 43.0554 8.06174 43.162 8.33317 43.162C8.60461 43.162 8.86519 43.0554 9.05878 42.8651L20.5199 31.3694C20.2326 31.305 19.9355 31.2257 19.6432 31.1663Z" fill="#FA754A"/>
<path d="M42.4069 8.04098C42.312 7.94574 42.1994 7.87016 42.0753 7.81859C41.9512 7.76702 41.8181 7.74048 41.6837 7.74048C41.5493 7.74048 41.4163 7.76702 41.2922 7.81859C41.1681 7.87016 41.0554 7.94574 40.9606 8.04098L29.123 19.8785C29.5251 19.778 29.934 19.7068 30.3464 19.6656C30.9095 19.5905 31.4824 19.6675 32.0057 19.8884L42.4069 9.48725C42.5021 9.39245 42.5777 9.27975 42.6292 9.15565C42.6808 9.03156 42.7074 8.89849 42.7074 8.76411C42.7074 8.62972 42.6808 8.49666 42.6292 8.37257C42.5777 8.24847 42.5021 8.13579 42.4069 8.04098Z" fill="#FA754A"/>
</g>
<defs>
<clipPath id="clip0_129_93">
<rect width="50" height="50" fill="white" transform="translate(0 0.453125)"/>
</clipPath>
</defs>
</svg>
