<svg width="15" height="12" viewBox="0 0 15 12" fill="none" xmlns="http://www.w3.org/2000/svg">
<path d="M14.9817 1.6085C14.4551 1.8367 13.9109 1.99468 13.3316 2.0649C13.9285 1.71382 14.3849 1.15209 14.5955 0.467484C14.0338 0.801011 13.4194 1.02921 12.7699 1.16965C12.2433 0.607917 11.4884 0.256836 10.6634 0.256836C9.06599 0.256836 7.78455 1.55583 7.78455 3.1357C7.78455 3.3639 7.8021 3.57455 7.85477 3.7852C5.46742 3.67987 3.36093 2.52131 1.93906 0.783457C0.920923 2.60908 2.06193 4.11872 2.81676 4.62779C2.36035 4.62779 1.90395 4.48736 1.51776 4.27671C1.51776 5.69859 2.51834 6.87471 3.81734 7.13802C3.53647 7.22579 2.90453 7.27845 2.51834 7.19068C2.88697 8.33169 3.95777 9.17428 5.20411 9.19184C4.22108 9.96422 2.78165 10.5786 0.938477 10.3855C2.21992 11.2106 3.72957 11.6845 5.36209 11.6845C10.6634 11.6845 13.5423 7.296 13.5423 3.50433C13.5423 3.38145 13.5423 3.25858 13.5247 3.1357C14.1216 2.69685 14.6131 2.18778 14.9817 1.6085V1.6085Z" fill="#1F4262"/>
</svg>
