<svg width="20" height="14" viewBox="0 0 20 14" fill="none" xmlns="http://www.w3.org/2000/svg">
<path d="M18.8471 2.26016C18.6364 1.4768 18.0188 0.859283 17.2356 0.648348C15.8047 0.256836 10.081 0.256836 10.081 0.256836C10.081 0.256836 4.35751 0.256836 2.92662 0.633505C2.15844 0.844216 1.52574 1.47691 1.31503 2.26016C0.938477 3.69094 0.938477 6.65819 0.938477 6.65819C0.938477 6.65819 0.938477 9.64041 1.31503 11.0562C1.52597 11.8395 2.14337 12.457 2.92673 12.6679C4.37258 13.0596 10.0812 13.0596 10.0812 13.0596C10.0812 13.0596 15.8047 13.0596 17.2356 12.6829C18.0189 12.4721 18.6364 11.8545 18.8474 11.0713C19.2238 9.64041 19.2238 6.67326 19.2238 6.67326C19.2238 6.67326 19.2389 3.69094 18.8471 2.26016V2.26016ZM8.25868 9.39945V3.91694L13.0182 6.65819L8.25868 9.39945Z" fill="#1F4262"/>
</svg>
